<?xml version="1.0" encoding="UTF-8"?>
<svg width="20px" height="20px" viewBox="0 0 20 20" version="1.1" xmlns="http://www.w3.org/2000/svg" xmlns:xlink="http://www.w3.org/1999/xlink">
    <!-- Generator: Sketch 52.2 (67145) - http://www.bohemiancoding.com/sketch -->
    <title>网站</title>
    <desc>Created with Sketch.</desc>
    <g id="Page-1" stroke="none" stroke-width="1" fill="none" fill-rule="evenodd">
        <g id="上传按钮" transform="translate(-228.000000, -15.000000)" fill="#F73657">
            <g id="分组">
                <g id="网站" transform="translate(227.000000, 14.000000)">
                    <rect id="矩形" opacity="0" x="0" y="0" width="22" height="22"></rect>
                    <path d="M6.2326,8.8 L3.333,8.8 C3.12862855,9.51543787 3.02532786,10.2559446 3.0261,11 C3.0261,11.7634 3.1328,12.5015 3.3341,13.2 L6.2337,13.2 C6.1127,12.496 6.0511,11.7623 6.0511,11 C6.0511,10.2377 6.1127,9.504 6.2337,8.8 L6.2326,8.8 Z M7.3513,8.8 C7.21464434,9.52529861 7.1472412,10.261945 7.15,11 C7.15,11.7678 7.216,12.5015 7.3513,13.2 L10.45,13.2 L10.45,8.8 L7.3513,8.8 Z M8.9628,18.7121 C7.78957309,17.4643983 6.93717552,15.9502412 6.479,14.3 L3.7378,14.3 C4.73069955,16.4790716 6.648197,18.0982469 8.9628,18.7121 Z M10.45,18.6351 L10.45,14.3 L7.6263,14.3 C8.1433,15.9566 9.0838,17.3987 10.45,18.6362 L10.45,18.6351 Z M8.9628,3.289 C6.64841742,3.90261187 4.73096034,5.52134932 3.7378,7.7 L6.479,7.7 C6.93685619,6.04986522 7.78887089,4.53571769 8.9617,3.2879 L8.9628,3.289 Z M10.45,3.366 C9.0838,4.6002 8.1444,6.0423 7.6263,7.7 L10.45,7.7 L10.45,3.3638 L10.45,3.366 Z M15.7674,8.8 C15.8884,9.504 15.95,10.2377 15.95,11 C15.95,11.7623 15.8884,12.496 15.7674,13.2 L18.6681,13.2 C18.8683,12.5015 18.975,11.7634 18.975,11 C18.975,10.2366 18.8683,9.4985 18.667,8.8 L15.7674,8.8 Z M14.6487,8.8 L11.55,8.8 L11.55,13.2 L14.6487,13.2 C14.7829,12.5015 14.85,11.7678 14.85,11 C14.85,10.2322 14.784,9.4985 14.6487,8.8 Z M13.0372,18.7121 C15.351803,18.0982469 17.2693004,16.4790716 18.2622,14.3 L15.521,14.3 C15.0631438,15.9501348 14.2111291,17.4642823 13.0383,18.7121 L13.0372,18.7121 Z M11.55,18.6351 C12.9162,17.3987 13.8556,15.9566 14.3737,14.3 L11.55,14.3 L11.55,18.6362 L11.55,18.6351 Z M13.0372,3.289 C14.2102728,4.53638817 15.0626609,6.05015079 15.521,7.7 L18.2633,7.7 C17.2704004,5.52092836 15.352903,3.90175314 13.0383,3.2879 L13.0372,3.289 Z M11.55,3.366 L11.55,7.7 L14.3737,7.7 C13.8567,6.0434 12.9162,4.6013 11.55,3.3638 L11.55,3.366 Z M11,20.35 C5.83613759,20.35 1.65,16.1638624 1.65,11 C1.65,5.83613759 5.83613759,1.65 11,1.65 C16.1638624,1.65 20.35,5.83613759 20.35,11 C20.35,16.1638624 16.1638624,20.35 11,20.35 Z" id="形状" fill-rule="nonzero"></path>
                </g>
            </g>
        </g>
    </g>
</svg>