<?xml version="1.0" encoding="UTF-8"?>
<svg width="100%" height="100%" viewBox="0 0 18 17" version="1.1" xmlns="http://www.w3.org/2000/svg" xmlns:xlink="http://www.w3.org/1999/xlink">
    <!-- Generator: Sketch 52.4 (67378) - http://www.bohemiancoding.com/sketch -->
    <title>形状</title>
    <desc>Created with Sketch.</desc>
    <g id="Page-1" stroke="none" stroke-width="1" fill="none" fill-rule="evenodd">
        <g id="上传视频没有视频时" transform="translate(-48.000000, -589.000000)" fill="#FFFFFF" fill-rule="nonzero">
            <g id="分组" transform="translate(0.000000, 573.000000)">
                <g id="上传" transform="translate(48.000000, 16.000000)">
                    <path d="M9.6875,2.05 L9.6875,12.15625 C9.6875,12.56875 9.4125,12.84375 9,12.84375 C8.5875,12.84375 8.3125,12.56875 8.3125,12.15625 L8.3125,2.25625 L5.7,4.86875 C5.425,5.14375 5.0125,5.14375 4.7375,4.86875 C4.4625,4.59375 4.4625,4.18125 4.7375,3.90625 L8.10625,0.5375 C8.65625,-0.0125 9.48125,-0.0125 10.03125,0.5375 L13.4,3.90625 C13.675,4.18125 13.675,4.59375 13.4,4.86875 C13.125,5.14375 12.7125,5.14375 12.4375,4.86875 L9.6875,2.05 Z M15.875,10.78125 C15.875,10.36875 16.15,10.09375 16.5625,10.09375 C16.975,10.09375 17.25,10.36875 17.25,10.78125 L17.25,14.21875 C17.25,15.3875 16.35625,16.28125 15.1875,16.28125 L2.8125,16.28125 C1.64375,16.28125 0.75,15.3875 0.75,14.21875 L0.75,10.78125 C0.75,10.36875 1.025,10.09375 1.4375,10.09375 C1.85,10.09375 2.125,10.36875 2.125,10.78125 L2.125,14.21875 C2.125,14.63125 2.4,14.90625 2.8125,14.90625 L15.1875,14.90625 C15.6,14.90625 15.875,14.63125 15.875,14.21875 L15.875,10.78125 Z" id="形状"></path>
                </g>
            </g>
        </g>
    </g>
</svg>