<?xml version="1.0" encoding="UTF-8"?>
<svg width="730px" height="1096px" viewBox="0 0 730 1096" version="1.1" xmlns="http://www.w3.org/2000/svg" xmlns:xlink="http://www.w3.org/1999/xlink">
    <!-- Generator: Sketch 52.4 (67378) - http://www.bohemiancoding.com/sketch -->
    <title>Group 3</title>
    <desc>Created with Sketch.</desc>
    <defs>
        <path d="M1,0 L721,0 L721,355 C721,366.045695 712.045695,375 701,375 L21,375 C9.954305,375 1,366.045695 1,355 L1,0 Z" id="path-1"></path>
        <filter x="-1.1%" y="-1.1%" width="102.2%" height="104.3%" filterUnits="objectBoundingBox" id="filter-2">
            <feOffset dx="0" dy="4" in="SourceAlpha" result="shadowOffsetOuter1"></feOffset>
            <feGaussianBlur stdDeviation="2" in="shadowOffsetOuter1" result="shadowBlurOuter1"></feGaussianBlur>
            <feColorMatrix values="0 0 0 0 0   0 0 0 0 0   0 0 0 0 0  0 0 0 0.4 0" type="matrix" in="shadowBlurOuter1"></feColorMatrix>
        </filter>
        <polygon id="path-3" points="21 338 701 338 701 352 21 352"></polygon>
        <filter x="-1.0%" y="-35.7%" width="102.1%" height="200.0%" filterUnits="objectBoundingBox" id="filter-4">
            <feOffset dx="0" dy="2" in="SourceAlpha" result="shadowOffsetOuter1"></feOffset>
            <feGaussianBlur stdDeviation="2" in="shadowOffsetOuter1" result="shadowBlurOuter1"></feGaussianBlur>
            <feColorMatrix values="0 0 0 0 0   0 0 0 0 0   0 0 0 0 0  0 0 0 0.5 0" type="matrix" in="shadowBlurOuter1"></feColorMatrix>
        </filter>
        <path d="M691,531.350625 L691,1037.30708 L691,1047.24457 C680.025104,1047.25104 681.023669,1051.75844 681.023669,1057.31767 C681.023669,1057.34206 681.023755,1057.36642 681.023926,1057.39077 L670.999742,1057.39077 C670.999914,1057.36642 671,1057.34206 671,1057.31767 C671,1051.75445 666.522847,1047.24456 661,1047.24456 C655.477153,1047.24456 651,1051.75445 651,1057.31767 C651,1057.34206 651.000086,1057.36642 651.000258,1057.39077 L640.958229,1057.39077 C640.493726,1052.26202 636.212622,1048.24456 631,1048.24456 C625.787378,1048.24456 621.506274,1052.26202 621.041771,1057.39077 L610.958229,1057.39077 C610.493726,1052.26202 606.212622,1048.24456 601,1048.24456 C595.787378,1048.24456 591.506274,1052.26202 591.041771,1057.39077 L580.958229,1057.39077 C580.493726,1052.26202 576.212622,1048.24456 571,1048.24456 C565.787378,1048.24456 561.506274,1052.26202 561.041771,1057.39077 L550.958229,1057.39077 C550.493726,1052.26202 546.212622,1048.24456 541,1048.24456 C535.787378,1048.24456 531.506274,1052.26202 531.041771,1057.39077 L520.958229,1057.39077 C520.493726,1052.26202 516.212622,1048.24456 511,1048.24456 C505.787378,1048.24456 501.506274,1052.26202 501.041771,1057.39077 L490.958229,1057.39077 C490.493726,1052.26202 486.212622,1048.24456 481,1048.24456 C475.787378,1048.24456 471.506274,1052.26202 471.041771,1057.39077 L460.958229,1057.39077 C460.493726,1052.26202 456.212622,1048.24456 451,1048.24456 C445.787378,1048.24456 441.506274,1052.26202 441.041771,1057.39077 L430.958229,1057.39077 C430.493726,1052.26202 426.212622,1048.24456 421,1048.24456 C415.787378,1048.24456 411.506274,1052.26202 411.041771,1057.39077 L400.958229,1057.39077 C400.493726,1052.26202 396.212622,1048.24456 391,1048.24456 C385.787378,1048.24456 381.506274,1052.26202 381.041771,1057.39077 L370.958229,1057.39077 C370.493726,1052.26202 366.212622,1048.24456 361,1048.24456 C355.787378,1048.24456 351.506274,1052.26202 351.041771,1057.39077 L340.958229,1057.39077 C340.493726,1052.26202 336.212622,1048.24456 331,1048.24456 C325.787378,1048.24456 321.506274,1052.26202 321.041771,1057.39077 L310.958229,1057.39077 C310.493726,1052.26202 306.212622,1048.24456 301,1048.24456 C295.787378,1048.24456 291.506274,1052.26202 291.041771,1057.39077 L280.958229,1057.39077 C280.493726,1052.26202 276.212622,1048.24456 271,1048.24456 C265.787378,1048.24456 261.506274,1052.26202 261.041771,1057.39077 L250.958229,1057.39077 C250.493726,1052.26202 246.212622,1048.24456 241,1048.24456 C235.787378,1048.24456 231.506274,1052.26202 231.041771,1057.39077 L220.958229,1057.39077 C220.493726,1052.26202 216.212622,1048.24456 211,1048.24456 C205.787378,1048.24456 201.506274,1052.26202 201.041771,1057.39077 L190.958229,1057.39077 C190.493726,1052.26202 186.212622,1048.24456 181,1048.24456 C175.787378,1048.24456 171.506274,1052.26202 171.041771,1057.39077 L160.958229,1057.39077 C160.493726,1052.26202 156.212622,1048.24456 151,1048.24456 C145.787378,1048.24456 141.506274,1052.26202 141.041771,1057.39077 L130.958229,1057.39077 C130.493726,1052.26202 126.212622,1048.24456 121,1048.24456 C115.787378,1048.24456 111.506274,1052.26202 111.041771,1057.39077 L100.958229,1057.39077 C100.493726,1052.26202 96.2126221,1048.24456 91,1048.24456 C85.7873779,1048.24456 81.5062741,1052.26202 81.0417709,1057.39077 L70.9997605,1057.39077 C70.999914,1057.36642 71,1057.34206 71,1057.31767 C71,1051.75445 66.5228475,1047.24456 61,1047.24456 C55.4771525,1047.24456 51,1051.75445 51,1057.31767 C51,1057.34206 51.000086,1057.36642 51.0002578,1057.39077 L40.9997422,1057.39077 C40.999914,1057.36642 41,1057.34206 41,1057.31767 C41,1051.75445 36.5228475,1047.24456 31,1047.24456 L31,1037.30708 L31,531.350625 C36.5228475,531.350625 41,526.840743 41,521.277521 C41,515.7143 36.5228475,511.204418 31,511.204418 L31,345.244564 L691,345.244564 L691,511.204418 C685.477153,511.204418 681,515.7143 681,521.277521 C681,526.840743 685.477153,531.350625 691,531.350625 Z" id="path-5"></path>
        <filter x="-8.3%" y="-7.1%" width="116.5%" height="115.3%" filterUnits="objectBoundingBox" id="filter-6">
            <feMorphology radius="2.5" operator="dilate" in="SourceAlpha" result="shadowSpreadOuter1"></feMorphology>
            <feOffset dx="0" dy="4" in="shadowSpreadOuter1" result="shadowOffsetOuter1"></feOffset>
            <feGaussianBlur stdDeviation="15" in="shadowOffsetOuter1" result="shadowBlurOuter1"></feGaussianBlur>
            <feColorMatrix values="0 0 0 0 0   0 0 0 0 0   0 0 0 0 0  0 0 0 0.06 0" type="matrix" in="shadowBlurOuter1"></feColorMatrix>
        </filter>
        <linearGradient x1="50%" y1="0%" x2="50%" y2="79.3646625%" id="linearGradient-7">
            <stop stop-color="#000000" stop-opacity="0.04" offset="0%"></stop>
            <stop stop-color="#000000" stop-opacity="0.08" offset="37.6467666%"></stop>
            <stop stop-color="#000000" stop-opacity="0" offset="100%"></stop>
        </linearGradient>
        <path d="M25.9666988,54.2921165 C25.7357447,54.0543379 25.708419,53.6451433 25.9013649,53.3839757 L28.1697587,50.313525 C28.36463,50.0497513 28.7296624,49.9937903 28.993355,50.1948407 L42.2200871,60.2794635 C42.7446255,60.6793938 43.5797145,60.6639315 44.0890092,60.2418621 L77.074325,32.9058444 C77.3282645,32.6953963 77.7292613,32.7165063 77.9602371,32.9434267 L80.0820944,35.0280291 C80.3174306,35.2592334 80.3249147,35.6261082 80.0888687,35.8572003 L44.0187964,71.1702696 C43.5493305,71.6298828 42.8007296,71.6235745 42.3425262,71.1518317 L25.9666988,54.2921165 Z" id="path-8"></path>
        <filter x="-11.6%" y="-13.8%" width="123.2%" height="133.2%" filterUnits="objectBoundingBox" id="filter-9">
            <feOffset dx="0" dy="1" in="SourceAlpha" result="shadowOffsetOuter1"></feOffset>
            <feGaussianBlur stdDeviation="2" in="shadowOffsetOuter1" result="shadowBlurOuter1"></feGaussianBlur>
            <feColorMatrix values="0 0 0 0 0   0 0 0 0 0   0 0 0 0 0  0 0 0 0.2 0" type="matrix" in="shadowBlurOuter1"></feColorMatrix>
        </filter>
    </defs>
    <g id="整理" stroke="none" stroke-width="1" fill="none" fill-rule="evenodd">
        <g id="加入社群" transform="translate(-10.000000, -128.000000)">
            <g id="Group-3" transform="translate(14.000000, 128.000000)">
                <g id="Rectangle-3-Copy">
                    <use fill="black" fill-opacity="1" filter="url(#filter-2)" xlink:href="#path-1"></use>
                    <use fill="#CCCCCC" fill-rule="evenodd" xlink:href="#path-1"></use>
                </g>
                <g id="Rectangle-3-Copy">
                    <use fill="black" fill-opacity="1" filter="url(#filter-4)" xlink:href="#path-3"></use>
                    <use fill="#333333" fill-rule="evenodd" xlink:href="#path-3"></use>
                </g>
                <path d="M0,1 L722,1 L722,301 C722,314.254834 711.254834,325 698,325 L24,325 C10.745166,325 1.623249e-15,314.254834 0,301 L0,1 Z" id="Rectangle-3-Copy" fill="#999999"></path>
                <g id="Combined-Shape">
                    <use fill="black" fill-opacity="1" filter="url(#filter-6)" xlink:href="#path-5"></use>
                    <use fill="#FFFFFF" fill-rule="evenodd" xlink:href="#path-5"></use>
                </g>
                <rect id="Rectangle-7" fill="url(#linearGradient-7)" x="31" y="345" width="660" height="49"></rect>
                <path d="M1,0 L721,0 L721,295 C721,306.045695 712.045695,315 701,315 L21,315 C9.954305,315 1,306.045695 1,295 L1,0 Z" id="Rectangle-8" fill="#FFFFFF"></path>
                <path d="M61,522 L661,522" id="路径-2" stroke="#C1C1C1" stroke-width="3" opacity="0.146626" stroke-linecap="round" stroke-dasharray="14"></path>
                <g id="大图标/完成" transform="translate(310.000000, 69.000000)">
                    <path d="M102,51.6296296 C102,22.8328889 79.1671111,0 50.3703704,0 C22.8328889,0 0,22.8328889 0,51.6296296 C0,79.1671111 22.8328889,102 50.3703704,102 C79.1671111,102 102,79.1671111 102,51.6296296 Z" id="Fill-" fill="#F83657"></path>
                    <g id="Fill-">
                        <use fill="black" fill-opacity="1" filter="url(#filter-9)" xlink:href="#path-8"></use>
                        <use fill="#FFFFFF" fill-rule="evenodd" xlink:href="#path-8"></use>
                    </g>
                </g>
                <text id="报名成功" font-family="PingFangSC-Semibold, PingFang SC" font-size="46" font-weight="500" letter-spacing="0.07666667" fill="#333333">
                    <tspan x="269.346667" y="230">报名成功</tspan>
                </text>
            </g>
        </g>
    </g>
</svg>