
<svg width="23px" height="23px" viewBox="0 0 23 23" version="1.1" xmlns="http://www.w3.org/2000/svg" xmlns:xlink="http://www.w3.org/1999/xlink">
    <!-- Generator: Sketch 51 (57462) - http://www.bohemiancoding.com/sketch -->
    <desc>Created with Sketch.</desc>
    <defs></defs>
    <g id="Page-1" stroke="none" stroke-width="1" fill="none" fill-rule="evenodd">
        <g id="Artboard-Copy-10" transform="translate(-44.000000, -153.000000)">
            <rect fill="#FFFFFF" x="0" y="0" width="750" height="1334"></rect>
            <g id="Group" transform="translate(44.000000, 150.000000)" fill="#999090" fill-rule="nonzero">
                <path d="M10,21 C14.418278,21 18,17.418278 18,13 C18,8.581722 14.418278,5 10,5 C5.581722,5 2,8.581722 2,13 C2,17.418278 5.581722,21 10,21 Z M17.7096948,19.3691489 L22.4934815,24.2552957 C22.8798503,24.6499318 22.8731484,25.2830613 22.4785123,25.66943 C22.0838763,26.0557988 21.4507468,26.0490969 21.064378,25.6544609 L16.2881194,20.7760033 C14.5703149,22.1668468 12.3824541,23 10,23 C4.4771525,23 0,18.5228475 0,13 C0,7.4771525 4.4771525,3 10,3 C15.5228475,3 20,7.4771525 20,13 C20,15.4200777 19.1403248,17.6393674 17.7096948,19.3691489 Z" id="Combined-Shape"></path>
            </g>
        </g>
    </g>
</svg>