<?xml version="1.0" encoding="UTF-8"?>
<svg width="114px" height="114px" viewBox="0 0 114 114" version="1.1" xmlns="http://www.w3.org/2000/svg" xmlns:xlink="http://www.w3.org/1999/xlink">
    <!-- Generator: Sketch 52.5 (67469) - http://www.bohemiancoding.com/sketch -->
    <title>大图标/完成</title>
    <desc>Created with Sketch.</desc>
    <defs>
        <filter x="-19.3%" y="-19.3%" width="138.6%" height="138.6%" filterUnits="objectBoundingBox" id="filter-1">
            <feOffset dx="0" dy="1" in="SourceAlpha" result="shadowOffsetOuter1"></feOffset>
            <feGaussianBlur stdDeviation="3" in="shadowOffsetOuter1" result="shadowBlurOuter1"></feGaussianBlur>
            <feColorMatrix values="0 0 0 0 0   0 0 0 0 0   0 0 0 0 0  0 0 0 0.2 0" type="matrix" in="shadowBlurOuter1" result="shadowMatrixOuter1"></feColorMatrix>
            <feMerge>
                <feMergeNode in="shadowMatrixOuter1"></feMergeNode>
                <feMergeNode in="SourceGraphic"></feMergeNode>
            </feMerge>
        </filter>
    </defs>
    <g id="Page-1" stroke="none" stroke-width="1" fill="none" fill-rule="evenodd">
        <g id="听课页-有解锁名额-试听中-copy-11" transform="translate(-318.000000, -458.000000)">
            <g id="大图标/完成" transform="translate(324.000000, 464.000000)">
                <path d="M105,51.6296296 C105,81.0285936 80.616232,105 50.3703704,105 C21.1760346,105 -3,80.8239654 -3,51.6296296 C-3,21.383768 20.9714064,-3 50.3703704,-3 C80.8239654,-3 105,21.1760346 105,51.6296296 Z" id="Fill-" stroke="#FFFFFF" stroke-width="6" fill="#F83657"></path>
                <g id="Group-2" filter="url(#filter-1)" transform="translate(16.000000, 16.000000)">
                    <rect id="Rectangle-2" x="0" y="0" width="70" height="70"></rect>
                    <g id="Group" transform="translate(10.500000, 8.750000)" stroke="#FFFFFF" stroke-linecap="round" stroke-linejoin="round" stroke-width="5.25">
                        <path d="M49,27.6052879 L49,43.75 C49,47.6159932 45.8659932,50.75 42,50.75 L7,50.75 C3.13400675,50.75 4.73447626e-16,47.6159932 0,43.75 L0,8.75 C-4.73447626e-16,4.88400675 3.13400675,1.75 7,1.75 L18.1784443,1.75" id="Rectangle"></path>
                        <path d="M38.4000126,1.75 L48.9654418,1.75" id="Path-2"></path>
                        <path d="M49,1.75 L49,12.3154292" id="Path-2"></path>
                        <path d="M18.3976473,32.3746532 L47.2160819,3.55621861" id="Path-3"></path>
                    </g>
                </g>
            </g>
        </g>
    </g>
</svg>