<?xml version="1.0" encoding="UTF-8"?>
<svg width="66px" height="67px" viewBox="0 0 66 67" version="1.1" xmlns="http://www.w3.org/2000/svg" xmlns:xlink="http://www.w3.org/1999/xlink">
    <!-- Generator: Sketch 52.5 (67469) - http://www.bohemiancoding.com/sketch -->
    <title>分组 5 copy 3</title>
    <desc>Created with Sketch.</desc>
    <defs>
        <ellipse id="path-1" cx="31" cy="31.5" rx="31" ry="31.5"></ellipse>
        <mask id="mask-2" maskContentUnits="userSpaceOnUse" maskUnits="objectBoundingBox" x="-1.7" y="-1.7" width="65.4" height="66.4">
            <rect x="-1.7" y="-1.7" width="65.4" height="66.4" fill="white"></rect>
            <use xlink:href="#path-1" fill="black"></use>
        </mask>
    </defs>
    <g id="Page-1" stroke="none" stroke-width="1" fill="none" fill-rule="evenodd">
        <g id="听课页-有解锁名额-试听中-copy-11" transform="translate(-432.000000, -769.000000)">
            <g id="分组-5-copy-3" transform="translate(434.000000, 771.000000)">
                <use id="Oval-5-Copy-4" stroke="#999999" mask="url(#mask-2)" stroke-width="3.4" stroke-dasharray="2.455555510520935,6.138888978958129" fill-rule="nonzero" xlink:href="#path-1"></use>
                <path d="M31.264,20 C33.312,20 34.944,20.544 36.192,21.696 C37.376,22.784 37.984,24.288 37.984,26.208 C37.984,27.648 37.568,28.896 36.768,29.952 C36.448,30.336 35.584,31.168 34.176,32.416 C33.472,33.024 32.992,33.6 32.672,34.176 C32.256,34.88 32.064,35.648 32.064,36.512 L32.064,37.248 L29.504,37.248 L29.504,36.512 C29.504,35.456 29.696,34.528 30.08,33.728 C30.528,32.768 31.584,31.552 33.312,30.016 C33.824,29.504 34.208,29.12 34.4,28.864 C35.04,28.064 35.36,27.232 35.36,26.336 C35.36,25.056 34.976,24.064 34.272,23.36 C33.536,22.592 32.48,22.24 31.136,22.24 C29.536,22.24 28.352,22.752 27.584,23.808 C26.88,24.704 26.528,25.92 26.528,27.488 L24,27.488 C24,25.248 24.608,23.456 25.888,22.112 C27.168,20.704 28.96,20 31.264,20 Z M30.784,39.488 C31.328,39.488 31.808,39.648 32.192,40.032 C32.544,40.384 32.736,40.832 32.736,41.376 C32.736,41.952 32.544,42.4 32.16,42.752 C31.776,43.104 31.328,43.296 30.784,43.296 C30.24,43.296 29.792,43.104 29.408,42.752 C29.024,42.368 28.864,41.92 28.864,41.376 C28.864,40.832 29.024,40.384 29.408,40.032 C29.792,39.648 30.24,39.488 30.784,39.488 Z" id="？" fill="#999999"></path>
            </g>
        </g>
    </g>
</svg>