<?xml version="1.0" encoding="UTF-8"?>
<svg width="210px" height="264px" viewBox="0 0 210 264" version="1.1" xmlns="http://www.w3.org/2000/svg" xmlns:xlink="http://www.w3.org/1999/xlink">
    <!-- Generator: Sketch 52.5 (67469) - http://www.bohemiancoding.com/sketch -->
    <title>指向</title>
    <desc>Created with Sketch.</desc>
    <g id="Page-1" stroke="none" stroke-width="1" fill="none" fill-rule="evenodd">
        <g id="听课页-有解锁名额-试听中-copy-11" transform="translate(-510.000000, -145.000000)" fill="#FFFFFF" fill-rule="nonzero">
            <path id="指向" d="M709.856189,169.418815 C709.873019,169.85989 709.888598,170.299845 709.902929,170.738676 C709.938983,171.842657 709.073257,172.766838 707.969276,172.802892 C706.865295,172.838946 705.941114,171.97322 705.90506,170.869239 C705.893045,170.501319 705.880137,170.132579 705.866334,169.763022 L697.426276,170.49115 C696.638536,170.559109 695.944856,169.975611 695.876897,169.187872 C695.857794,168.966441 695.890508,168.743604 695.972449,168.537007 L704.684854,146.570441 C704.976358,145.835473 705.808477,145.475975 706.543445,145.767479 C706.831385,145.881682 707.074517,146.086196 707.236348,146.350322 L719.582158,166.500186 C719.99523,167.17437 719.783557,168.055764 719.109373,168.468836 C718.919863,168.584949 718.705921,168.655344 718.484491,168.674447 L709.856189,169.418815 Z M512.690411,408.840086 C511.653742,409.221389 510.504249,408.690111 510.122946,407.653442 C509.741642,406.616774 510.272921,405.467281 511.309589,405.085977 C514.491514,403.915614 517.582765,402.728405 520.591933,401.520557 C521.617008,401.109102 522.781546,401.60654 523.193,402.631615 C523.604455,403.65669 523.107017,404.821227 522.081942,405.232682 C519.036082,406.455258 515.908453,407.656438 512.690411,408.840086 Z M531.363638,401.329331 C530.352909,401.774866 529.172375,401.316686 528.72684,400.305957 C528.281305,399.295228 528.739485,398.114694 529.750214,397.669159 C532.830707,396.311261 535.829148,394.922919 538.754129,393.499696 C539.747362,393.016413 540.944314,393.42981 541.427597,394.423043 C541.910879,395.416276 541.497483,396.613228 540.50425,397.096511 C537.533632,398.54194 534.489628,399.951377 531.363638,401.329331 Z M549.479501,392.49972 C548.507203,393.023847 547.29411,392.660532 546.769983,391.688233 C546.245856,390.715935 546.60917,389.502842 547.581469,388.978715 C550.519894,387.394728 553.390197,385.764554 556.200901,384.083018 C557.148788,383.515934 558.376914,383.824635 558.943998,384.772522 C559.511083,385.720409 559.202381,386.948535 558.254494,387.515619 C555.392305,389.227957 552.470134,390.887589 549.479501,392.49972 Z M566.794365,382.132508 C565.874069,382.743351 564.632836,382.49249 564.021993,381.572194 C563.41115,380.651898 563.662011,379.410665 564.582306,378.799822 C567.334751,376.972896 570.038198,375.084369 572.700765,373.128455 C573.590958,372.474522 574.842721,372.666048 575.496654,373.556242 C576.150588,374.446435 575.959061,375.698198 575.068868,376.352131 C572.355144,378.345625 569.599667,380.270498 566.794365,382.132508 Z M583.069946,370.178572 C582.21145,370.873595 580.952073,370.741073 580.25705,369.882577 C579.562027,369.02408 579.694548,367.764703 580.553045,367.06968 C583.098223,365.009151 585.615495,362.874857 588.112243,360.660683 C588.938655,359.927801 590.202713,360.003623 590.935595,360.830036 C591.668477,361.656448 591.592655,362.920506 590.766243,363.653388 C588.224897,365.907112 585.661928,368.080151 583.069946,370.178572 Z M598.179544,356.79207 C597.384592,357.558964 596.118466,357.536218 595.351573,356.741266 C594.58468,355.946315 594.607425,354.680189 595.402377,353.913295 C597.744457,351.653881 600.077864,349.313647 602.409083,346.88645 C603.174222,346.08981 604.440294,346.064273 605.236935,346.829412 C606.033575,347.594551 606.059112,348.860624 605.293973,349.657264 C602.92786,352.12079 600.558565,354.497019 598.179544,356.79207 Z M612.126259,342.292254 C611.388639,343.114441 610.124166,343.182996 609.301979,342.445376 C608.479793,341.707756 608.411238,340.443283 609.148858,339.621096 C610.349049,338.283305 611.551117,336.920047 612.756012,335.530323 C613.580542,334.579309 614.576176,333.400219 615.632255,332.119057 C616.334836,331.266735 617.595334,331.145345 618.447657,331.847926 C619.299979,332.550507 619.421369,333.811005 618.718788,334.663328 C617.642081,335.969514 616.625085,337.173903 615.778267,338.150624 C614.55866,339.557316 613.341645,340.937525 612.126259,342.292254 Z M624.966747,326.741957 C624.30271,327.62464 623.048846,327.801888 622.166164,327.137851 C621.283481,326.473814 621.106234,325.21995 621.77027,324.337267 C623.924504,321.473715 625.845,318.756559 627.445997,316.278054 C628.045332,315.350222 629.283345,315.083923 630.211177,315.683259 C631.139008,316.282594 631.405307,317.520607 630.805972,318.448438 C629.148286,321.014704 627.174397,323.8074 624.966747,326.741957 Z M635.684049,309.202825 C635.312139,310.2429 634.167499,310.784556 633.127424,310.412646 C632.087348,310.040736 631.545693,308.896096 631.917602,307.856021 C632.044351,307.501557 632.132937,307.254086 632.349252,306.650074 C632.565977,306.045046 632.565977,306.045046 632.783364,305.438035 C633.135495,304.45456 633.397896,303.720017 633.655159,302.996812 C634.259014,301.299285 634.768454,299.848713 635.248969,298.453623 C635.60868,297.409266 636.746902,296.854251 637.791259,297.213962 C638.835616,297.573673 639.390632,298.711895 639.03092,299.756252 C638.545528,301.165504 638.031828,302.628204 637.423815,304.337421 C637.165464,305.063685 636.902228,305.800565 636.549251,306.786403 C636.331652,307.394007 636.331652,307.394007 636.114995,307.998844 C635.898889,308.602272 635.810519,308.84914 635.684049,309.202825 Z M642.126471,290.147943 C641.814757,291.207617 640.703027,291.813958 639.643354,291.502244 C638.58368,291.19053 637.977339,290.0788 638.289053,289.019127 C639.278072,285.656951 640.082008,282.51016 640.709835,279.485524 C640.934327,278.404008 641.993055,277.709252 643.074572,277.933744 C644.156088,278.158235 644.850844,279.216964 644.626352,280.29848 C643.975034,283.436287 643.14458,286.686876 642.126471,290.147943 Z M646.119131,270.158608 C646.031035,271.259659 645.06704,272.080821 643.96599,271.992725 C642.864939,271.904628 642.043777,270.940634 642.131873,269.839584 C642.40065,266.480336 642.393959,263.272311 642.095011,260.192674 C641.988289,259.093273 642.793015,258.115516 643.892417,258.008795 C644.991819,257.902073 645.969575,258.706799 646.076297,259.806201 C646.398891,263.129438 646.406073,266.572328 646.119131,270.158608 Z M643.938382,249.576311 C644.287113,250.624385 643.720182,251.75672 642.672108,252.105451 C641.624033,252.454181 640.491698,251.887251 640.142968,250.839176 C639.145537,247.841498 637.795519,244.975998 636.070104,242.23422 C635.481792,241.29936 635.762724,240.064585 636.697584,239.476273 C637.632444,238.887961 638.867219,239.168894 639.455531,240.103754 C641.35277,243.11857 642.840088,246.2755 643.938382,249.576311 Z M632.762303,232.060378 C633.55748,232.827039 633.580596,234.093158 632.813936,234.888334 C632.047276,235.68351 630.781157,235.706627 629.98598,234.939967 C627.139438,232.195505 624.553576,230.433366 622.869111,230.192361 C622.804299,230.183095 622.804299,230.183095 622.739478,230.173856 C621.645943,230.018115 620.885711,229.005377 621.041452,227.911842 C621.197194,226.818307 622.209932,226.058075 623.303467,226.213816 C623.369566,226.223237 623.369566,226.223237 623.435643,226.232684 C626.213502,226.630127 629.339575,228.760393 632.762303,232.060378 Z M613.199564,225.132849 C614.302075,225.200256 615.141192,226.148661 615.073786,227.251172 C615.006379,228.353683 614.057973,229.192801 612.955462,229.125394 C609.44995,228.911069 606.249239,228.931699 603.266674,229.215031 C602.167055,229.319491 601.190956,228.512755 601.086497,227.413136 C600.982037,226.313517 601.788773,225.337419 602.888392,225.232959 C606.093272,224.928507 609.498364,224.90656 613.199564,225.132849 Z M592.625037,227.466141 C593.662305,227.086473 594.810959,227.619563 595.190627,228.656831 C595.570295,229.6941 595.037205,230.842754 593.999937,231.222422 C591.003899,232.319052 588.306476,233.839503 585.892217,235.830716 C585.040087,236.533529 583.779555,236.412484 583.076742,235.560353 C582.373928,234.708223 582.494973,233.447691 583.347104,232.744878 C586.118263,230.459303 589.2123,228.715294 592.625037,227.466141 Z M576.387527,240.689547 C576.986952,239.761774 578.224991,239.495595 579.152764,240.095021 C580.080538,240.694446 580.346716,241.932485 579.747291,242.860258 C578.099617,245.410479 576.592546,248.338733 575.360006,251.415267 C574.949226,252.440613 573.785016,252.938817 572.759671,252.528037 C571.734325,252.117257 571.236121,250.953047 571.646901,249.927701 C572.974018,246.615092 574.598903,243.457927 576.387527,240.689547 Z M568.712335,259.906068 C568.914767,258.820207 569.959134,258.104045 571.044996,258.306476 C572.130857,258.508907 572.847019,259.553274 572.644588,260.639136 C572.026057,263.957004 571.837479,267.139535 572.111868,270.071488 C572.21479,271.171252 571.40669,272.146221 570.306926,272.249143 C569.207162,272.352065 568.232192,271.543965 568.12927,270.444201 C567.818465,267.123119 568.028866,263.572268 568.712335,259.906068 Z M571.308398,280.773675 C570.748821,279.821337 571.067217,278.595688 572.019555,278.036111 C572.971892,277.476534 574.197542,277.79493 574.757119,278.747267 C576.248106,281.284762 578.348584,283.382815 581.104315,285.00293 C582.056517,285.562737 582.374617,286.788463 581.814809,287.740666 C581.255002,288.692868 580.029276,289.010968 579.077074,288.451161 C575.735019,286.486342 573.144922,283.899234 571.308398,280.773675 Z M588.541812,292.657337 C587.504091,292.278908 586.969629,291.130891 587.348058,290.09317 C587.726487,289.055449 588.874503,288.520987 589.912224,288.899416 C592.935831,290.002044 596.066384,290.938553 599.269951,291.701174 C600.344493,291.956972 601.008216,293.035427 600.752417,294.109969 C600.496618,295.184511 599.418164,295.848234 598.343622,295.592435 C594.990872,294.794301 591.712041,293.813434 588.541812,292.657337 Z M608.417475,297.409381 C607.321346,297.273095 606.543239,296.274024 606.679525,295.177895 C606.815811,294.081765 607.814882,293.303659 608.911011,293.439945 C612.161323,293.844069 615.42675,294.069902 618.668692,294.115227 C619.773154,294.130669 620.655979,295.038529 620.640538,296.142991 C620.625097,297.247453 619.717236,298.130278 618.612774,298.114837 C615.224237,298.067462 611.812721,297.831526 608.417475,297.409381 Z M629.081303,297.240927 C628.013,297.521642 626.919404,296.883175 626.638689,295.814871 C626.357974,294.746567 626.996441,293.652971 628.064745,293.372257 C630.604493,292.704895 633.676238,291.545338 637.114175,289.985816 C638.120088,289.529512 639.305449,289.975058 639.761752,290.980971 C640.218056,291.986884 639.77251,293.172245 638.766597,293.628548 C635.140117,295.273598 631.869031,296.508404 629.081303,297.240927 Z M647.831836,289.060744 C646.863755,289.592622 645.647799,289.239009 645.115921,288.270929 C644.584044,287.302848 644.937656,286.086892 645.905737,285.555014 C649.118201,283.790039 652.178341,281.954793 654.347696,280.515799 C655.268169,279.905223 656.50933,280.156445 657.119906,281.076918 C657.730481,281.997391 657.47926,283.238552 656.558787,283.849128 C654.292262,285.352578 651.137631,287.244492 647.831836,289.060744 Z M664.746625,278.041947 C663.839143,278.67167 662.592993,278.446502 661.96327,277.53902 C661.333547,276.631538 661.558715,275.385388 662.466197,274.755665 C666.300891,272.094681 668.150303,270.744156 670.366997,268.907371 C671.217521,268.202614 672.478325,268.320782 673.183082,269.171306 C673.887839,270.02183 673.769672,271.282635 672.919147,271.987392 C670.590009,273.917351 668.670085,275.319366 664.746625,278.041947 Z M680.338751,264.887164 C679.59361,265.70254 678.328561,265.759477 677.513184,265.014336 C676.697808,264.269195 676.640871,263.004146 677.386012,262.188769 C679.387608,259.998507 681.44932,257.505076 683.631417,254.619097 C684.297595,253.738028 685.551885,253.563826 686.432953,254.230003 C687.314021,254.896181 687.488224,256.150472 686.822046,257.03154 C684.567381,260.013497 682.426904,262.602185 680.338751,264.887164 Z M692.675044,248.786574 C692.058878,249.703314 690.816212,249.946978 689.899471,249.330812 C688.982731,248.714646 688.739067,247.47198 689.355233,246.555239 C690.214761,245.276421 691.094464,243.939712 691.995985,242.542221 C692.824826,241.257363 693.653004,239.816912 694.467133,238.233663 C694.972251,237.251355 696.178048,236.864515 697.160356,237.369632 C698.142665,237.874749 698.529505,239.080546 698.024388,240.062855 C697.151766,241.759854 696.258561,243.313409 695.357278,244.710563 C694.442325,246.128877 693.548817,247.486562 692.675044,248.786574 Z M702.083008,230.649443 C701.70674,231.68795 700.559838,232.2248 699.521331,231.848531 C698.482825,231.472263 697.945975,230.325361 698.322243,229.286855 C699.377562,226.374158 700.347735,223.242684 701.217367,219.907443 C701.496056,218.838609 702.588438,218.198069 703.657273,218.476757 C704.726107,218.755445 705.366647,219.847828 705.087958,220.916662 C704.187485,224.370188 703.180783,227.619566 702.083008,230.649443 Z M707.268774,211.002133 C707.070813,212.088818 706.029402,212.809272 704.942716,212.611312 C703.856031,212.413352 703.135577,211.37194 703.333537,210.285255 C703.904548,207.150741 704.390271,203.894547 704.785489,200.520259 C704.913985,199.423189 705.907502,198.638004 707.004572,198.7665 C708.101642,198.894996 708.886827,199.888513 708.758331,200.985583 C708.353296,204.443684 707.85506,207.783767 707.268774,211.002133 Z M709.650618,190.895341 C709.583325,191.997858 708.635007,192.837074 707.532489,192.769782 C706.429971,192.70249 705.590755,191.754171 705.658047,190.651653 C705.854299,187.43628 705.97342,184.137645 706.012717,180.757002 C706.025555,179.652507 706.931333,178.767545 708.035828,178.780384 C709.140323,178.793222 710.025285,179.699 710.012447,180.803495 C709.972388,184.249661 709.850892,187.614043 709.650618,190.895341 Z"></path>
        </g>
    </g>
</svg>