<svg xmlns="http://www.w3.org/2000/svg" xmlns:xlink="http://www.w3.org/1999/xlink" width="37px" height="37px" viewBox="0 0 37 37" version="1.1">
    <!-- Generator: Sketch 53.2 (72643) - https://sketchapp.com -->
    <title>Switch/right</title>
    <desc>Created with Sketch.</desc>
    <g id="Page-1" stroke="none" stroke-width="1" fill="none" fill-rule="evenodd">
        <g id="006-B端-分销推广-自动分销" transform="translate(-41.000000, -329.000000)">
            <g id="分组-4" transform="translate(20.000000, 308.000000)">
                <g id="Switch/right" transform="translate(20.000000, 20.000000)">
                    <rect id="Rectangle-42" stroke="#979797" stroke-width="1.66666667" opacity="0" x="0.833333333" y="0.833333333" width="38.3333333" height="38.3333333"/>
                    <path d="M1.66666667,19.6658419 C1.66666667,9.74009753 9.74199852,1.66666667 19.6666667,1.66666667 C29.5913348,1.66666667 37.6666667,9.74154094 37.6666667,19.6658419 C37.6666667,29.590349 29.5929869,37.6666667 19.6666667,37.6666667 C9.74199852,37.6666667 1.66666667,29.5917924 1.66666667,19.6658419 Z" id="Fill-" fill="#F73657"/>
                    <path d="M16.8027439,25.4356226 L11.8801925,20.1040639 C11.5954914,19.7950573 11.5954914,19.2982631 11.8801925,18.9892565 C12.1638511,18.6825286 12.6245218,18.6825286 12.9076592,18.9892565 L17.3175476,23.765418 L26.4261767,13.8984216 C26.7087929,13.589415 27.1700034,13.589415 27.4531409,13.8984216 C27.7378419,14.2062787 27.7378419,14.7042023 27.4531409,15.0120594 L17.8312717,25.4367519 C17.6889212,25.5898335 17.503495,25.6666465 17.3170078,25.6666465 C17.1305392,25.6666667 16.9440706,25.5898335 16.8027439,25.4356226 Z" id="Shape" stroke="#FFFFFF" stroke-width="2" fill="#FFFFFF" fill-rule="nonzero"/>
                </g>
            </g>
        </g>
    </g>
</svg>
