
<svg width="100%" height="100%" viewBox="0 0 23 24" version="1.1" xmlns="http://www.w3.org/2000/svg" xmlns:xlink="http://www.w3.org/1999/xlink">
    <defs></defs>
    <g id="Page-1" stroke="none" stroke-width="1" fill="none" fill-rule="evenodd">
        <g id="vip" transform="translate(-599.000000, -938.000000)" fill-rule="nonzero">
            <g id="Group-10" transform="translate(599.000000, 938.000000)">
                <path d="M21.267957,8.88344086 L21.4193548,8.88344086 C22.215595,8.88344086 22.8610753,8.23796064 22.8610753,7.44172043 C22.8610753,6.64548022 22.215595,6 21.4193548,6 L21.267957,6 C20.4717168,6 19.8262366,6.64548022 19.8262366,7.44172043 C19.8262366,8.23796064 20.4717168,8.88344086 21.267957,8.88344086 Z M15.1156989,8.88344086 L15.6249462,6 L9.36258065,6 L8.85333333,8.88344086 L15.1156989,8.88344086 Z M1.44172043,6.00688172 C0.645480223,6.00688172 0,6.65236194 0,7.44860215 C0,8.24484236 0.645480223,8.89032258 1.44172043,8.89032258 L5.92172043,8.89032258 L6.43096774,6.00688172 L1.44172043,6.00688172 Z M18.3913978,7.44516129 C18.3916803,7.33869328 18.38014,7.23252307 18.3569892,7.12860215 L18.1643011,8.21591398 C18.3120365,7.98594848 18.3908407,7.71849182 18.3913978,7.44516129 Z M7.71096774,15.3384946 L7.20172043,18.2219355 L13.4709677,18.2219355 L13.9802151,15.3384946 L7.71096774,15.3384946 Z M21.3849462,18.2219355 C22.1811864,18.2219355 22.8266667,17.5764553 22.8266667,16.7802151 C22.8266667,15.9839748 22.1811864,15.3384946 21.3849462,15.3384946 L16.9049462,15.3384946 L16.3956989,18.2219355 L21.3849462,18.2219355 Z M1.5311828,15.3384946 L1.44172043,15.3384946 C1.06570245,15.3381137 0.705900278,15.4915918 0.445928981,15.7632618 C0.185957684,16.0349318 0.0484553333,16.4011369 0.0653763441,16.7767742 C0.0878024379,17.580429 0.747870534,18.219106 1.55182796,18.2150538 C2.34806816,18.2150538 2.99354839,17.5695735 2.99354839,16.7733333 C2.99354839,15.9770931 2.34806816,15.3316129 1.55182796,15.3316129 L1.5311828,15.3384946 Z M12.8584946,21.6834409 C12.7687557,22.1899129 12.956033,22.7057874 13.3497811,23.0367397 C13.7435293,23.3676919 14.2839285,23.4634422 14.7674156,23.2879225 C15.2509027,23.1124027 15.6040245,22.6922784 15.6937634,22.1858065 L16.3819355,18.2219355 L13.4709677,18.2219355 L12.8584946,21.6834409 Z" id="Shape"></path>
                <path d="M16.9797849,8.02920465 L15.1423656,8.02920465 L14,14.4842584 L16.9247312,14.4842584 L18.184086,7.36167777 C17.9221603,7.7743699 17.4685673,8.02579003 16.9797849,8.02920465 Z M16.9797849,5.15264551 C17.6442055,5.16570408 18.2131727,5.63225714 18.356129,6.28124766 L19.168172,1.69114013 C19.3068964,0.908202289 18.7846583,0.161047424 18.0017204,0.0223230016 C17.2187826,-0.116401421 16.4716277,0.405836712 16.3329032,1.18877454 L15.6447312,5.15264551 L16.9797849,5.15264551 Z" id="Shape"></path>
                <path d="M16.3107147,5.15952723 L14.9825427,5.15952723 L14.4732953,8.04296809 L16.303833,8.04296809 C16.7991248,8.03743776 17.2567204,7.77744026 17.5150158,7.35479605 L17.7077039,6.26748422 C17.5547418,5.61925875 16.9767417,5.16084485 16.3107147,5.15952723 Z M12.8285642,17.374581 L15.7532953,17.374581 L16.2625427,14.4911401 L13.3378115,14.4911401 L12.8285642,17.374581 Z M4.05437061,15.9294197 C4.05436155,15.1377596 4.69411739,14.494928 5.48576846,14.4911401 L7.06856416,14.4911401 L8.23845663,8.03608637 L5.27931685,8.03608637 L3.02211255,20.8360864 C2.93237358,21.3425584 3.11965094,21.858433 3.51339907,22.1893852 C3.9071472,22.5203374 4.44754638,22.6160877 4.93103348,22.440568 C5.41452058,22.2650482 5.7676424,21.844924 5.85738137,21.338452 L6.54555341,17.374581 L5.48576846,17.374581 C5.10431164,17.3727602 4.7392021,17.2194786 4.47076199,16.9484573 C4.20232188,16.6774361 4.05254109,16.3108765 4.05437061,15.9294197 Z M9.32576846,1.69114013 C9.46449284,0.908202289 8.94225467,0.161047424 8.15931684,0.0223230016 C7.376379,-0.116401421 6.62922411,0.405836712 6.49049965,1.18877454 L5.8023276,5.15264551 L8.72017707,5.15264551 L9.32576846,1.69114013 Z M8.72017707,5.15264551 L5.78856416,5.15264551 L5.27931685,8.03608637 L8.21092975,8.03608637 L8.72017707,5.15264551 Z" id="Shape"></path>
            </g>
        </g>
    </g>
</svg>