
<svg width="44px" height="51px" viewBox="0 0 44 51" version="1.1" xmlns="http://www.w3.org/2000/svg" xmlns:xlink="http://www.w3.org/1999/xlink">
    <!-- Generator: Sketch 51.1 (57501) - http://www.bohemiancoding.com/sketch -->
    <desc>Created with Sketch.</desc>
    <defs></defs>
    <g id="整理" stroke="none" stroke-width="1" fill="none" fill-rule="evenodd">
        <g id="Artboard-Copy-2" transform="translate(-104.000000, -1197.000000)">
            <g id="优惠码" transform="translate(106.000000, 1199.000000)">
                <path d="M36.9291076,0 C38.6225765,0 40,1.45206024 40,3.25429072 C40,3.25429072 40,41.9913114 40,44.6448293 C40,47.2983473 37.6249577,47.0101005 37.6249577,47.0101005 C36.9897277,47.0839867 36.0156861,46.8278925 35.4569053,46.503208 L33.3040053,45.2522465 C32.1879545,44.6037554 30.3767174,44.6004775 29.2562514,45.2436219 L27.0493833,46.5103582 C26.4850218,46.8343002 25.5668066,46.8562076 24.986015,46.5664517 L22.0949469,45.1241026 C20.9436653,44.5497301 19.0707896,44.5735863 17.9241333,45.1835588 L15.3767568,46.5386548 C14.801594,46.844617 13.8795303,46.8374556 13.3136823,46.5245679 L10.9504533,45.2178122 C9.81516384,44.5900498 7.97888943,44.5966208 6.85357514,45.2350078 L4.60545602,46.5103582 C4.03442854,46.8343002 3.06553561,47.0362028 2.42874858,46.9684821 C2.42874858,46.9684821 0,47.1301912 0,44.6448293 L0,3.25429072 C0,1.45206024 1.37780409,0 3.07089245,0 L36.9291076,0 Z" id="Combined-shape-797" stroke="#999999" stroke-width="3.51219512" fill="#999999"></path>
                <rect id="Rectangle-39" fill="#FFFFFF" x="6.82926829" y="8.81632653" width="25.3658537" height="3.91836735" rx="1.95918367"></rect>
                <rect id="Rectangle-39-Copy" fill="#FFFFFF" x="6.82926829" y="18.6122449" width="25.3658537" height="3.91836735" rx="1.95918367"></rect>
            </g>
        </g>
    </g>
</svg>