
<svg width="56px" height="54px" viewBox="0 0 56 54" version="1.1" xmlns="http://www.w3.org/2000/svg" xmlns:xlink="http://www.w3.org/1999/xlink">
    <!-- Generator: Sketch 51.1 (57501) - http://www.bohemiancoding.com/sketch -->
    <desc>Created with Sketch.</desc>
    <defs></defs>
    <g id="整理" stroke="none" stroke-width="1" fill="none" fill-rule="evenodd">
        <g id="Artboard-Copy-2" transform="translate(-348.000000, -1197.000000)" fill="#999999" fill-rule="nonzero">
            <path d="M403.427581,1218.49498 C403.561935,1219.25946 404,1221.92489 404,1224.02264 C404,1226.13405 403.561936,1228.78924 403.427581,1229.55258 C403.244394,1230.6464 402.329086,1231.46351 401.229355,1231.51496 C396.648871,1231.75728 393.054032,1235.65019 393.054032,1240.37697 C393.054032,1241.91047 393.672742,1243.47924 393.795806,1243.77843 C394.269231,1244.89517 393.832284,1246.19195 392.781936,1246.78742 L385.871129,1250.69967 C385.640806,1250.83618 385.360806,1250.93402 385.065,1250.97383 C385.010806,1250.98407 384.848226,1251 384.713871,1251 C384.190182,1250.99827 383.677297,1250.84977 383.232581,1250.57112 C383.048548,1250.44826 382.898387,1250.32198 382.767419,1250.18092 L382.694032,1250.10015 C382.0232,1249.38401 381.294751,1248.72498 380.516129,1248.1298 C378.784194,1246.81131 377.21371,1246.14239 375.847581,1246.14239 C374.496129,1246.14239 372.934677,1246.7988 371.209516,1248.09454 C370.419913,1248.68735 369.682554,1249.34772 369.005645,1250.06829 C368.810323,1250.26851 368.677097,1250.37886 368.537097,1250.46987 C367.762581,1250.98066 366.649355,1251.05119 365.864677,1250.6007 L359.206774,1246.78514 C358.160068,1246.18585 357.728199,1244.88922 358.204194,1243.77502 C358.276452,1243.60438 358.94371,1241.95484 358.94371,1240.37811 C358.94371,1235.65133 355.348871,1231.75841 350.761613,1231.51496 C349.666925,1231.45937 348.757146,1230.64574 348.572419,1229.55713 C348.202097,1227.37974 348,1225.42305 348,1224.02378 C348,1222.62338 348.202097,1220.66555 348.567903,1218.51091 C348.767742,1217.39377 349.667581,1216.58948 350.759355,1216.52919 C355.348871,1216.28233 358.94371,1212.38941 358.94371,1207.66832 C358.94371,1206.07111 358.280968,1204.45229 358.205323,1204.27254 C357.731752,1203.1508 358.171433,1201.84967 359.225968,1201.25218 L366.262097,1197.29215 C367.114516,1196.8098 368.279677,1196.95656 369.044032,1197.4992 C369.152719,1197.57642 369.254698,1197.66281 369.348871,1197.75744 C370.036714,1198.47496 370.785895,1199.1301 371.587742,1199.71527 C373.29371,1200.95868 374.828065,1201.58892 376.149032,1201.58892 C377.464355,1201.58892 378.988548,1200.97119 380.675323,1199.75395 C381.451574,1199.19207 382.180742,1198.56694 382.855484,1197.88485 C382.968071,1197.76229 383.094215,1197.65313 383.231452,1197.55949 C383.99129,1197.02823 385.18129,1196.92925 385.987419,1197.38657 L392.784194,1201.25332 C393.834093,1201.85203 394.269696,1203.15016 393.795806,1204.26799 C393.72129,1204.44546 393.054032,1206.08362 393.054032,1207.66718 C393.054032,1212.39169 396.648871,1216.2846 401.237258,1216.53033 C402.334852,1216.58521 403.246393,1217.40284 403.427581,1218.49498 Z M375.499444,1213 C369.709563,1213 365,1217.93305 365,1223.9977 C365,1230.06465 369.709563,1235 375.499444,1235 C381.289325,1235 386,1230.06465 386,1223.9977 C386,1217.9342 381.289325,1213 375.499444,1213 Z M375.499444,1232.0142 C371.305007,1232.0142 367.892715,1228.41838 367.892715,1223.9977 C367.892715,1219.58047 371.305007,1215.9858 375.499444,1215.9858 C379.694993,1215.9858 383.108397,1219.57932 383.108397,1223.9977 C383.108397,1228.41838 379.693881,1232.0142 375.499444,1232.0142 Z" id="设置"></path>
        </g>
    </g>
</svg>