
<svg width="54px" height="50px" viewBox="0 0 54 50" version="1.1" xmlns="http://www.w3.org/2000/svg" xmlns:xlink="http://www.w3.org/1999/xlink">
    <!-- Generator: Sketch 51.1 (57501) - http://www.bohemiancoding.com/sketch -->
    <desc>Created with Sketch.</desc>
    <defs></defs>
    <g id="整理" stroke="none" stroke-width="1" fill="none" fill-rule="evenodd">
        <g id="Artboard-Copy-2" transform="translate(-598.000000, -1199.000000)" fill="#999999">
            <path d="M621.532514,1234.12766 L636.793465,1216.1593 C637.127915,1215.76551 637.124994,1215.1866 636.786588,1214.79621 C636.407968,1214.35943 635.746956,1214.31228 635.310177,1214.6909 L615.464428,1231.89407 C615.367547,1231.97805 615.287292,1232.07879 615.227231,1232.19099 L599.453891,1227.34621 C598.348767,1227.00678 597.728056,1225.83573 598.067495,1224.7306 C598.237868,1224.17591 598.630846,1223.71683 599.152622,1223.46294 L648.994223,1199.21093 C650.03377,1198.7051 651.286542,1199.13777 651.792367,1200.17732 C652.005128,1200.61458 652.05902,1201.11227 651.944787,1201.58493 L643.044501,1238.41207 C642.772922,1239.53579 641.641803,1240.2266 640.518076,1239.95502 C640.476787,1239.94504 640.435811,1239.9338 640.395206,1239.92133 L621.532514,1234.12766 Z M622.965595,1248.52783 C622.771848,1248.82112 622.443811,1248.99757 622.0923,1248.99757 C621.514261,1248.99757 621.045668,1248.52898 621.045668,1247.95094 L621.045668,1237.42619 C621.045668,1237.31273 621.064117,1237.20002 621.100294,1237.09248 C621.284599,1236.54461 621.878143,1236.24988 622.426013,1236.43419 L628.114415,1238.34778 C628.200268,1238.37666 628.282008,1238.41656 628.357587,1238.46649 C628.839894,1238.78509 628.972601,1239.43436 628.653996,1239.91667 L622.965595,1248.52783 Z" id="推送通知"></path>
        </g>
    </g>
</svg>