<svg id="图层_1" data-name="图层 1" xmlns="http://www.w3.org/2000/svg" xmlns:xlink="http://www.w3.org/1999/xlink" viewBox="0 0 80 80"><defs><style>.cls-1{fill:#fff;}.cls-2{fill:url(#未命名的渐变);}.cls-3{mask:url(#mask);}.cls-4{fill:#4a4a4a;opacity:0.06;isolation:isolate;}.cls-5,.cls-7{fill:none;}.cls-5{stroke:#aaf3e6;stroke-width:1.9px;}.cls-6{fill:#91e5dc;}.cls-7{stroke:#fff;stroke-linecap:round;stroke-linejoin:round;stroke-width:3.16px;}</style><linearGradient id="未命名的渐变" x1="-261.19" y1="432.56" x2="-261.19" y2="431.56" gradientTransform="matrix(80, 0, 0, -80, 20935, 34605)" gradientUnits="userSpaceOnUse"><stop offset="0" stop-color="#bafcec"/><stop offset="1" stop-color="#81dcd5"/></linearGradient><mask id="mask" x="0" y="0" width="81.16" height="82.11" maskUnits="userSpaceOnUse"><g id="mask-3"><path id="path-2" class="cls-1" d="M40,0h0A40,40,0,0,1,80,40h0A40,40,0,0,1,40,80h0A40,40,0,0,1,0,40H0A40,40,0,0,1,40,0Z"/></g></mask></defs><title>111</title><g id="Artboard"><g id="Group-2-Copy_3x" data-name="Group-2-Copy@3x"><g id="Path-4"><g id="Mask-2" data-name="Mask"><path id="path-2-2" data-name="path-2" class="cls-2" d="M40,0h0A40,40,0,0,1,80,40h0A40,40,0,0,1,40,80h0A40,40,0,0,1,0,40H0A40,40,0,0,1,40,0Z"/></g><g id="Clipped"><g class="cls-3"><polygon id="Shape" class="cls-4" points="21.49 57.42 47.05 82.11 72.55 70.52 81.16 50.43 57.36 25.66 21.49 57.42"/></g></g></g><g id="Rectangle-5"><g id="Mask-3-2" data-name="Mask"><path id="path-5" class="cls-1" d="M52.59,24.76h2.65a3.82,3.82,0,0,1,3.81,3.81V55.24a3.82,3.82,0,0,1-3.81,3.81H24.76A3.82,3.82,0,0,1,21,55.24V28.57a3.82,3.82,0,0,1,3.81-3.81h2.65v1.91a3.07,3.07,0,1,0,6.13,0V24.76H46.46v1.91a3.07,3.07,0,1,0,6.13,0Z"/></g></g><g id="Rectangle-4"><g id="path-7-link"><path id="path-7" class="cls-1" d="M30.48,21h0a1.91,1.91,0,0,1,1.9,1.91v3.81a1.9,1.9,0,0,1-1.9,1.9h0a1.9,1.9,0,0,1-1.91-1.9V22.86A1.91,1.91,0,0,1,30.48,21Z"/></g><path id="Rectangle-path" class="cls-5" d="M30.48,20h0a2.86,2.86,0,0,1,2.85,2.86v3.81a2.86,2.86,0,0,1-2.85,2.85h0a2.86,2.86,0,0,1-2.86-2.85V22.86A2.86,2.86,0,0,1,30.48,20Z"/></g><g id="Rectangle-4-Copy"><g id="path-8-link"><path id="path-8" class="cls-1" d="M49.52,21h0a1.91,1.91,0,0,1,1.91,1.91v3.81a1.9,1.9,0,0,1-1.91,1.9h0a1.9,1.9,0,0,1-1.9-1.9V22.86A1.91,1.91,0,0,1,49.52,21Z"/></g><path id="Rectangle-path-2" data-name="Rectangle-path" class="cls-5" d="M49.52,20h0a2.86,2.86,0,0,1,2.86,2.86v3.81a2.86,2.86,0,0,1-2.86,2.85h0a2.86,2.86,0,0,1-2.85-2.85V22.86A2.86,2.86,0,0,1,49.52,20Z"/></g><rect id="Rectangle-6" class="cls-6" x="24.76" y="36.19" width="30.48" height="19.05" rx="1.9" ry="1.9"/><polyline id="Path-2-3" data-name="Path-2" class="cls-7" points="34.29 45.71 37.96 49.52 45.71 41.91"/></g></g></svg>