<?xml version="1.0" encoding="UTF-8"?>
<svg width="128px" height="128px" viewBox="0 0 128 128" version="1.1" xmlns="http://www.w3.org/2000/svg" xmlns:xlink="http://www.w3.org/1999/xlink">
    <!-- Generator: Sketch 52.5 (67469) - http://www.bohemiancoding.com/sketch -->
    <title>分组 2</title>
    <desc>Created with Sketch.</desc>
    <defs>
        <circle id="path-1" cx="44" cy="44" r="44"></circle>
        <filter x="-36.4%" y="-31.8%" width="172.7%" height="172.7%" filterUnits="objectBoundingBox" id="filter-2">
            <feOffset dx="0" dy="4" in="SourceAlpha" result="shadowOffsetOuter1"></feOffset>
            <feGaussianBlur stdDeviation="10" in="shadowOffsetOuter1" result="shadowBlurOuter1"></feGaussianBlur>
            <feColorMatrix values="0 0 0 0 0   0 0 0 0 0   0 0 0 0 0  0 0 0 0.2 0" type="matrix" in="shadowBlurOuter1"></feColorMatrix>
        </filter>
    </defs>
    <g id="页面-1" stroke="none" stroke-width="1" fill="none" fill-rule="evenodd">
        <g id="直播间后台" transform="translate(-622.000000, -1065.000000)">
            <g id="分组-2" transform="translate(642.000000, 1081.000000)">
                <g id="椭圆形">
                    <use fill="black" fill-opacity="1" filter="url(#filter-2)" xlink:href="#path-1"></use>
                    <use fill="#F73657" fill-rule="evenodd" xlink:href="#path-1"></use>
                </g>
                <g id="客服" transform="translate(22.000000, 8.000000)">
                    <rect id="矩形" fill="#000000" opacity="0" x="0" y="0" width="44" height="44"></rect>
                    <path d="M23.4007813,38.1132813 C22.8078125,38.1132813 22.3265625,37.6320313 22.3265625,37.0390625 C22.3265625,36.4460938 22.8078125,35.9648438 23.4007813,35.9648438 C26.9886719,35.9648438 30.3445312,33.8722656 31.9515625,30.6367188 C32.2136719,30.1039063 32.8582031,29.8890625 33.3910156,30.1511719 C33.9238281,30.4132813 34.1386719,31.0578125 33.8765625,31.590625 C32.9226563,33.515625 31.4574219,35.1398438 29.6441406,36.2957031 C27.7707031,37.4859375 25.6136719,38.1132813 23.4007812,38.1132813 Z M34.6328125,18.0339844 L32.484375,18.0339844 C32.484375,12.4652344 27.9511719,7.93203125 22.3824219,7.93203125 L21.4886719,7.93203125 C15.915625,7.93203125 11.3867188,12.4652344 11.3867188,18.0339844 L9.23828125,18.0339844 C9.23828125,16.3882812 9.56484375,14.7855469 10.2050781,13.2730469 C10.8238281,11.8164062 11.7089844,10.5058594 12.8347656,9.38007812 C13.9605469,8.25429687 15.2710938,7.36914062 16.7277344,6.75039062 C18.2402344,6.11015625 19.8386719,5.78359375 21.4886719,5.78359375 L22.3824219,5.78359375 C24.028125,5.78359375 25.6308594,6.11015625 27.1433594,6.75039062 C28.6,7.36914062 29.9105469,8.25429687 31.0363281,9.38007812 C32.1621094,10.5058594 33.0472656,11.8164062 33.6660156,13.2730469 C34.30625,14.7855469 34.6328125,16.3882812 34.6328125,18.0339844 Z M34.71875,31.3285156 L32.5703125,31.3285156 C30.5550781,31.3285156 28.9179688,29.6914063 28.9179688,27.6761719 L28.9179688,21.6175781 C28.9179688,19.6023438 30.5550781,17.9652344 32.5703125,17.9652344 L34.71875,17.9652344 C36.7339844,17.9652344 38.3710938,19.6023438 38.3710938,21.6175781 L38.3710938,27.6761719 C38.3710938,29.6871094 36.7339844,31.3285156 34.71875,31.3285156 Z M32.5703125,20.1136719 C31.7410156,20.1136719 31.0664062,20.7882813 31.0664062,21.6175781 L31.0664062,27.6761719 C31.0664062,28.5054687 31.7410156,29.1800781 32.5703125,29.1800781 L34.71875,29.1800781 C35.5480469,29.1800781 36.2226562,28.5054687 36.2226562,27.6761719 L36.2226562,21.6175781 C36.2226562,20.7882813 35.5480469,20.1136719 34.71875,20.1136719 L32.5703125,20.1136719 Z M11.5886719,31.3285156 L9.44023437,31.3285156 C7.425,31.3285156 5.78789063,29.6914063 5.78789063,27.6761719 L5.78789063,21.6175781 C5.78789063,19.6023438 7.425,17.9652344 9.44023437,17.9652344 L11.5886719,17.9652344 C13.6039062,17.9652344 15.2410156,19.6023438 15.2410156,21.6175781 L15.2410156,27.6761719 C15.2410156,29.6871094 13.5996094,31.3285156 11.5886719,31.3285156 Z M9.44023437,20.1136719 C8.6109375,20.1136719 7.93632813,20.7882813 7.93632813,21.6175781 L7.93632813,27.6761719 C7.93632813,28.5054687 8.6109375,29.1800781 9.44023437,29.1800781 L11.5886719,29.1800781 C12.4179688,29.1800781 13.0925781,28.5054687 13.0925781,27.6761719 L13.0925781,21.6175781 C13.0925781,20.7882813 12.4179688,20.1136719 11.5886719,20.1136719 L9.44023437,20.1136719 Z" id="形状" fill="#FFFFFF" fill-rule="nonzero"></path>
                </g>
                <text id="咨询" font-family="PingFangSC-Regular, PingFang SC" font-size="20" font-weight="normal" fill="#FFFFFF">
                    <tspan x="24" y="71">咨询</tspan>
                </text>
            </g>
        </g>
    </g>
</svg>