<?xml version="1.0" encoding="UTF-8"?>
<svg width="20px" height="20px" viewBox="0 0 20 20" version="1.1" xmlns="http://www.w3.org/2000/svg" xmlns:xlink="http://www.w3.org/1999/xlink">
    <!-- Generator: Sketch 51.1 (57501) - http://www.bohemiancoding.com/sketch -->
    <title>筛选@2x</title>
    <desc>Created with Sketch.</desc>
    <defs></defs>
    <g id="Page-1" stroke="none" stroke-width="1" fill="none" fill-rule="evenodd">
        <g id="显示全部" transform="translate(-594.000000, -496.000000)" fill="#666666" fill-rule="nonzero">
            <g id="Group" transform="translate(594.000000, 489.000000)">
                <g id="筛选" transform="translate(0.000000, 7.000000)">
                    <path d="M16.1953196,2.49927771 C14.1958974,4.39872877 11.5966486,6.9979776 9.99711084,8.59751531 L9.99711084,18.494655 C9.99711084,19.5943372 9.19734197,20.4940772 8.59751531,19.6943083 C7.99768867,18.9945106 6.99797758,17.6948862 6.99797758,17.6948862 L6.99797758,8.49754422 C5.39843984,6.89800648 2.79919104,4.29875766 0.89973998,2.49927771 C-0.599826641,1.1996533 0.0999711133,0 0.799768867,0 L16.1953196,0 C16.9950884,0 17.494944,1.1996533 16.1953196,2.49927771 Z M13.9959552,10.9968219 L19.9942217,10.9968219 L19.9942217,12.9962441 L13.9959552,12.9962441 L13.9959552,10.9968219 Z M13.9959552,16.9950884 L13.9959552,14.9956662 L19.9942217,14.9956662 L19.9942217,16.9950884 L13.9959552,16.9950884 Z"></path>
                </g>
            </g>
        </g>
    </g>
</svg>